G04 #@! TF.FileFunction,Legend,Bot*
%FSLAX46Y46*%
G04 Gerber Fmt 4.6, Leading zero omitted, Abs format (unit mm)*
G04 Created by KiCad (PCBNEW 4.0.2-stable) date 6/28/2016 8:29:36 AM*
%MOMM*%
G01*
G04 APERTURE LIST*
%ADD10C,0.100000*%
%ADD11C,0.300000*%
%ADD12C,0.254000*%
%ADD13C,0.101600*%
G04 APERTURE END LIST*
D10*
D11*
X96528571Y-106121429D02*
X96457142Y-106050000D01*
X96314285Y-105978571D01*
X95957142Y-105978571D01*
X95814285Y-106050000D01*
X95742856Y-106121429D01*
X95671428Y-106264286D01*
X95671428Y-106407143D01*
X95742856Y-106621429D01*
X96599999Y-107478571D01*
X95671428Y-107478571D01*
X95771428Y-104578571D02*
X96628571Y-104578571D01*
X96199999Y-104578571D02*
X96199999Y-103078571D01*
X96342856Y-103292857D01*
X96485714Y-103435714D01*
X96628571Y-103507143D01*
X96128572Y-100878571D02*
X96271429Y-100878571D01*
X96414286Y-100950000D01*
X96485715Y-101021429D01*
X96557144Y-101164286D01*
X96628572Y-101450000D01*
X96628572Y-101807143D01*
X96557144Y-102092857D01*
X96485715Y-102235714D01*
X96414286Y-102307143D01*
X96271429Y-102378571D01*
X96128572Y-102378571D01*
X95985715Y-102307143D01*
X95914286Y-102235714D01*
X95842858Y-102092857D01*
X95771429Y-101807143D01*
X95771429Y-101450000D01*
X95842858Y-101164286D01*
X95914286Y-101021429D01*
X95985715Y-100950000D01*
X96128572Y-100878571D01*
D12*
X154000000Y-100190000D02*
X154000000Y-102730000D01*
X154000000Y-102730000D02*
X156540000Y-102730000D01*
X156540000Y-100190000D02*
X156540000Y-107810000D01*
X156540000Y-107810000D02*
X151460000Y-107810000D01*
X151460000Y-107810000D02*
X151460000Y-102730000D01*
X156540000Y-100190000D02*
X154000000Y-100190000D01*
X151460000Y-100190000D02*
X154000000Y-100190000D01*
X151460000Y-102730000D02*
X151460000Y-100190000D01*
X128000000Y-100190000D02*
X128000000Y-102730000D01*
X128000000Y-102730000D02*
X130540000Y-102730000D01*
X130540000Y-100190000D02*
X130540000Y-107810000D01*
X130540000Y-107810000D02*
X125460000Y-107810000D01*
X125460000Y-107810000D02*
X125460000Y-102730000D01*
X130540000Y-100190000D02*
X128000000Y-100190000D01*
X125460000Y-100190000D02*
X128000000Y-100190000D01*
X125460000Y-102730000D02*
X125460000Y-100190000D01*
X100000000Y-100190000D02*
X100000000Y-102730000D01*
X100000000Y-102730000D02*
X102540000Y-102730000D01*
X102540000Y-100190000D02*
X102540000Y-107810000D01*
X102540000Y-107810000D02*
X97460000Y-107810000D01*
X97460000Y-107810000D02*
X97460000Y-102730000D01*
X102540000Y-100190000D02*
X100000000Y-100190000D01*
X97460000Y-100190000D02*
X100000000Y-100190000D01*
X97460000Y-102730000D02*
X97460000Y-100190000D01*
D13*
X169270000Y-131810000D02*
X169270000Y-126730000D01*
X169270000Y-126730000D02*
X110850000Y-126730000D01*
X110850000Y-126730000D02*
X110850000Y-131810000D01*
X110850000Y-131810000D02*
X169270000Y-131810000D01*
M02*
