G04 #@! TF.FileFunction,Copper,L1,Top,Signal*
%FSLAX46Y46*%
G04 Gerber Fmt 4.6, Leading zero omitted, Abs format (unit mm)*
G04 Created by KiCad (PCBNEW 4.0.2-stable) date 6/28/2016 8:29:36 AM*
%MOMM*%
G01*
G04 APERTURE LIST*
%ADD10C,0.100000*%
%ADD11R,1.600200X3.599180*%
%ADD12R,2.600000X2.000000*%
%ADD13O,2.600000X2.000000*%
%ADD14R,1.600000X1.600000*%
%ADD15C,1.600000*%
%ADD16R,1.800860X0.800100*%
%ADD17R,1.500000X1.300000*%
%ADD18R,1.300000X1.500000*%
%ADD19R,1.651000X1.651000*%
%ADD20C,1.651000*%
%ADD21C,0.750000*%
%ADD22C,0.400000*%
%ADD23C,0.800000*%
%ADD24C,0.250000*%
%ADD25C,0.600000*%
%ADD26C,0.200000*%
G04 APERTURE END LIST*
D10*
D11*
X113000000Y-99249180D03*
X113000000Y-104750820D03*
X140000000Y-99249180D03*
X140000000Y-104750820D03*
X166000000Y-99249180D03*
X166000000Y-104750820D03*
D12*
X166000000Y-110000000D03*
D13*
X166000000Y-112540000D03*
X166000000Y-115080000D03*
X166000000Y-117620000D03*
D12*
X140500000Y-110200000D03*
D13*
X140500000Y-112740000D03*
X140500000Y-115280000D03*
X140500000Y-117820000D03*
D12*
X114000000Y-110000000D03*
D13*
X114000000Y-112540000D03*
X114000000Y-115080000D03*
X114000000Y-117620000D03*
D12*
X86000000Y-100000000D03*
D13*
X86000000Y-102540000D03*
D14*
X155270000Y-101460000D03*
D15*
X152730000Y-101460000D03*
X155270000Y-104000000D03*
X152730000Y-104000000D03*
X155270000Y-106540000D03*
X152730000Y-106540000D03*
D14*
X129270000Y-101460000D03*
D15*
X126730000Y-101460000D03*
X129270000Y-104000000D03*
X126730000Y-104000000D03*
X129270000Y-106540000D03*
X126730000Y-106540000D03*
D14*
X101270000Y-101460000D03*
D15*
X98730000Y-101460000D03*
X101270000Y-104000000D03*
X98730000Y-104000000D03*
X101270000Y-106540000D03*
X98730000Y-106540000D03*
D14*
X88600000Y-122830000D03*
D15*
X88600000Y-125370000D03*
D14*
X83000000Y-122730000D03*
D15*
X83000000Y-125270000D03*
D16*
X99001140Y-127750000D03*
X99001140Y-125850000D03*
X95998860Y-126800000D03*
X99101140Y-123650000D03*
X99101140Y-121750000D03*
X96098860Y-122700000D03*
D17*
X99250000Y-130600000D03*
X96550000Y-130600000D03*
D18*
X88500000Y-116650000D03*
X88500000Y-119350000D03*
X93000000Y-122650000D03*
X93000000Y-125350000D03*
X103100000Y-127450000D03*
X103100000Y-124750000D03*
D17*
X93450000Y-130600000D03*
X90750000Y-130600000D03*
D18*
X83000000Y-116750000D03*
X83000000Y-119450000D03*
D12*
X86000000Y-110000000D03*
D13*
X86000000Y-112540000D03*
D19*
X168000000Y-128000000D03*
D20*
X168000000Y-130540000D03*
X165460000Y-128000000D03*
X165460000Y-130540000D03*
X162920000Y-128000000D03*
X162920000Y-130540000D03*
X160380000Y-128000000D03*
X160380000Y-130540000D03*
X157840000Y-128000000D03*
X157840000Y-130540000D03*
X155300000Y-128000000D03*
X155300000Y-130540000D03*
X152760000Y-128000000D03*
X152760000Y-130540000D03*
X150220000Y-128000000D03*
X150220000Y-130540000D03*
X147680000Y-128000000D03*
X147680000Y-130540000D03*
X145140000Y-128000000D03*
X145140000Y-130540000D03*
X142600000Y-128000000D03*
X142600000Y-130540000D03*
X140060000Y-128000000D03*
X140060000Y-130540000D03*
X137520000Y-128000000D03*
X137520000Y-130540000D03*
X134980000Y-128000000D03*
X134980000Y-130540000D03*
X132440000Y-128000000D03*
X132440000Y-130540000D03*
X129900000Y-128000000D03*
X129900000Y-130540000D03*
X127360000Y-128000000D03*
X127360000Y-130540000D03*
X124820000Y-128000000D03*
X124820000Y-130540000D03*
X122280000Y-128000000D03*
X122280000Y-130540000D03*
X119740000Y-128000000D03*
X119740000Y-130540000D03*
X117200000Y-128000000D03*
X117200000Y-130540000D03*
X114660000Y-128000000D03*
X114660000Y-130540000D03*
X112120000Y-128000000D03*
X112120000Y-130540000D03*
X147000000Y-99110000D03*
X147000000Y-101650000D03*
X147000000Y-104190000D03*
X147000000Y-106730000D03*
X147000000Y-109270000D03*
X147000000Y-111810000D03*
X147000000Y-114350000D03*
X147000000Y-116890000D03*
X159700000Y-116890000D03*
X159700000Y-114350000D03*
X159700000Y-111810000D03*
X159700000Y-109270000D03*
X159700000Y-106730000D03*
X159700000Y-104190000D03*
X159700000Y-101650000D03*
X159700000Y-99110000D03*
X121000000Y-99110000D03*
X121000000Y-101650000D03*
X121000000Y-104190000D03*
X121000000Y-106730000D03*
X121000000Y-109270000D03*
X121000000Y-111810000D03*
X121000000Y-114350000D03*
X121000000Y-116890000D03*
X133700000Y-116890000D03*
X133700000Y-114350000D03*
X133700000Y-111810000D03*
X133700000Y-109270000D03*
X133700000Y-106730000D03*
X133700000Y-104190000D03*
X133700000Y-101650000D03*
X133700000Y-99110000D03*
X94000000Y-99110000D03*
X94000000Y-101650000D03*
X94000000Y-104190000D03*
X94000000Y-106730000D03*
X94000000Y-109270000D03*
X94000000Y-111810000D03*
X94000000Y-114350000D03*
X94000000Y-116890000D03*
X106700000Y-116890000D03*
X106700000Y-114350000D03*
X106700000Y-111810000D03*
X106700000Y-109270000D03*
X106700000Y-106730000D03*
X106700000Y-104190000D03*
X106700000Y-101650000D03*
X106700000Y-99110000D03*
D14*
X83130000Y-130400000D03*
D15*
X85670000Y-130400000D03*
D21*
X102500000Y-121800000D03*
X95650000Y-128800000D03*
X105600000Y-125500000D03*
X92993752Y-120990552D03*
X93000000Y-127400000D03*
X91900000Y-118300000D03*
X91000000Y-122275019D03*
X90300000Y-118300000D03*
X90400000Y-111800000D03*
X90500000Y-108800000D03*
D22*
X86000000Y-100000000D02*
X83200000Y-100000000D01*
X83200000Y-100000000D02*
X81500000Y-101700000D01*
X81500000Y-101700000D02*
X81500000Y-115250000D01*
X81500000Y-115250000D02*
X83000000Y-116750000D01*
D23*
X106700000Y-99110000D02*
X112860820Y-99110000D01*
X112860820Y-99110000D02*
X113000000Y-99249180D01*
X106700000Y-99110000D02*
X106700000Y-97000000D01*
X106700000Y-97000000D02*
X107600000Y-96100000D01*
X133700000Y-99110000D02*
X139860820Y-99110000D01*
X139860820Y-99110000D02*
X140000000Y-99249180D01*
X133700000Y-99110000D02*
X133700000Y-96800000D01*
X133700000Y-96800000D02*
X133000000Y-96100000D01*
X159700000Y-99110000D02*
X165860820Y-99110000D01*
X165860820Y-99110000D02*
X166000000Y-99249180D01*
X86000000Y-100000000D02*
X86000000Y-99600000D01*
X86000000Y-99600000D02*
X89500000Y-96100000D01*
X89500000Y-96100000D02*
X107600000Y-96100000D01*
X107600000Y-96100000D02*
X133000000Y-96100000D01*
X133000000Y-96100000D02*
X162850820Y-96100000D01*
X162850820Y-96100000D02*
X166000000Y-99249180D01*
D24*
X100301570Y-121800000D02*
X102500000Y-121800000D01*
X99101140Y-121750000D02*
X100251570Y-121750000D01*
X100251570Y-121750000D02*
X100301570Y-121800000D01*
X99001140Y-125850000D02*
X98500760Y-125850000D01*
X98500760Y-125850000D02*
X97538899Y-126811861D01*
X97538899Y-126811861D02*
X97538899Y-127441431D01*
X96180330Y-128800000D02*
X95650000Y-128800000D01*
X97538899Y-127441431D02*
X96180330Y-128800000D01*
X96550000Y-130600000D02*
X96550000Y-129700000D01*
X96550000Y-129700000D02*
X95650000Y-128800000D01*
X104750000Y-125500000D02*
X105600000Y-125500000D01*
X103100000Y-124750000D02*
X104000000Y-124750000D01*
X104000000Y-124750000D02*
X104750000Y-125500000D01*
X103100000Y-124750000D02*
X99451090Y-124750000D01*
X99451090Y-124750000D02*
X99001140Y-125199950D01*
X99001140Y-125199950D02*
X99001140Y-125850000D01*
D25*
X159700000Y-101650000D02*
X163898670Y-101650000D01*
X163898670Y-101650000D02*
X166000000Y-103751330D01*
X166000000Y-103751330D02*
X166000000Y-104750820D01*
X133700000Y-101650000D02*
X137898670Y-101650000D01*
X137898670Y-101650000D02*
X140000000Y-103751330D01*
X140000000Y-103751330D02*
X140000000Y-104750820D01*
X113000000Y-104750820D02*
X111950820Y-104750820D01*
X111950820Y-104750820D02*
X108850000Y-101650000D01*
X108850000Y-101650000D02*
X106700000Y-101650000D01*
X165460000Y-128000000D02*
X165460000Y-120110000D01*
D22*
X93000000Y-120996800D02*
X92993752Y-120990552D01*
X93000000Y-122650000D02*
X93000000Y-120996800D01*
D24*
X93000000Y-129250000D02*
X93000000Y-127400000D01*
X93450000Y-130600000D02*
X93450000Y-129700000D01*
X93450000Y-129700000D02*
X93000000Y-129250000D01*
D22*
X92700000Y-112000000D02*
X93810000Y-112000000D01*
X91900000Y-112800000D02*
X92700000Y-112000000D01*
X91900000Y-118300000D02*
X91900000Y-112800000D01*
X93810000Y-112000000D02*
X94000000Y-111810000D01*
D25*
X165460000Y-120110000D02*
X159700000Y-114350000D01*
D22*
X155270000Y-106540000D02*
X155270000Y-104000000D01*
X155270000Y-104000000D02*
X155270000Y-101460000D01*
X129270000Y-106540000D02*
X129270000Y-104000000D01*
X129270000Y-104000000D02*
X129270000Y-101460000D01*
X101270000Y-106540000D02*
X101270000Y-104000000D01*
X101270000Y-104000000D02*
X101270000Y-101460000D01*
X152540000Y-109270000D02*
X154620000Y-109270000D01*
X154620000Y-109270000D02*
X159700000Y-114350000D01*
X147000000Y-109270000D02*
X152540000Y-109270000D01*
X152540000Y-109270000D02*
X155270000Y-106540000D01*
X147000000Y-109270000D02*
X147000000Y-111810000D01*
X133700000Y-114350000D02*
X134925501Y-113124499D01*
X134925501Y-113124499D02*
X134925501Y-112754497D01*
X134925501Y-112754497D02*
X139235497Y-108444501D01*
X139235497Y-108444501D02*
X146174501Y-108444501D01*
X146174501Y-108444501D02*
X147000000Y-109270000D01*
X108816893Y-111300000D02*
X108816893Y-112233107D01*
X108816893Y-112233107D02*
X106700000Y-114350000D01*
X119665038Y-107935038D02*
X121000000Y-109270000D01*
X108816893Y-111300000D02*
X108816893Y-111278589D01*
X108816893Y-111278589D02*
X112160444Y-107935038D01*
X112160444Y-107935038D02*
X119665038Y-107935038D01*
X126540000Y-109270000D02*
X128620000Y-109270000D01*
X128620000Y-109270000D02*
X133700000Y-114350000D01*
X121000000Y-109270000D02*
X126540000Y-109270000D01*
X126540000Y-109270000D02*
X129270000Y-106540000D01*
X121000000Y-109270000D02*
X121000000Y-111810000D01*
X94000000Y-109270000D02*
X94000000Y-111810000D01*
X106700000Y-114350000D02*
X106700000Y-114072623D01*
X99365499Y-108444501D02*
X100794501Y-108444501D01*
X100794501Y-108444501D02*
X106700000Y-114350000D01*
X94000000Y-109270000D02*
X94825499Y-108444501D01*
X94825499Y-108444501D02*
X99365499Y-108444501D01*
X99365499Y-108444501D02*
X100470001Y-107339999D01*
X100470001Y-107339999D02*
X101270000Y-106540000D01*
X86000000Y-110000000D02*
X93270000Y-110000000D01*
X93270000Y-110000000D02*
X94000000Y-109270000D01*
D24*
X147000000Y-101650000D02*
X152540000Y-101650000D01*
X152540000Y-101650000D02*
X152730000Y-101460000D01*
D22*
X152540000Y-101650000D02*
X152730000Y-101460000D01*
D24*
X147000000Y-104190000D02*
X152540000Y-104190000D01*
X152540000Y-104190000D02*
X152730000Y-104000000D01*
D22*
X152540000Y-104190000D02*
X152730000Y-104000000D01*
D24*
X147000000Y-106730000D02*
X152540000Y-106730000D01*
X152540000Y-106730000D02*
X152730000Y-106540000D01*
D22*
X152540000Y-106730000D02*
X152730000Y-106540000D01*
D24*
X121000000Y-101650000D02*
X126540000Y-101650000D01*
X126540000Y-101650000D02*
X126730000Y-101460000D01*
D22*
X126540000Y-101650000D02*
X126730000Y-101460000D01*
D24*
X121000000Y-104190000D02*
X126540000Y-104190000D01*
X126540000Y-104190000D02*
X126730000Y-104000000D01*
D22*
X126540000Y-104190000D02*
X126730000Y-104000000D01*
D24*
X121000000Y-106730000D02*
X126540000Y-106730000D01*
X126540000Y-106730000D02*
X126730000Y-106540000D01*
D22*
X126540000Y-106730000D02*
X126730000Y-106540000D01*
D24*
X94000000Y-101650000D02*
X98540000Y-101650000D01*
X98540000Y-101650000D02*
X98730000Y-101460000D01*
D22*
X98540000Y-101650000D02*
X98730000Y-101460000D01*
D24*
X98730000Y-104000000D02*
X94190000Y-104000000D01*
X94190000Y-104000000D02*
X94000000Y-104190000D01*
X94000000Y-106730000D02*
X98540000Y-106730000D01*
X98540000Y-106730000D02*
X98730000Y-106540000D01*
X88600000Y-121780000D02*
X88600000Y-122830000D01*
X96098860Y-122700000D02*
X96098860Y-122049950D01*
X96098860Y-122049950D02*
X94339461Y-120290551D01*
X94339461Y-120290551D02*
X90089449Y-120290551D01*
X90089449Y-120290551D02*
X88600000Y-121780000D01*
X90750000Y-130600000D02*
X90750000Y-127520000D01*
X90750000Y-127520000D02*
X88600000Y-125370000D01*
D22*
X83000000Y-119450000D02*
X83000000Y-122430000D01*
X83000000Y-122430000D02*
X83100000Y-122530000D01*
D26*
X83000000Y-122430000D02*
X83100000Y-122530000D01*
D24*
X110000000Y-127450000D02*
X111817790Y-125632210D01*
X111817790Y-125632210D02*
X132547359Y-125632210D01*
X132547359Y-125632210D02*
X133692899Y-126777750D01*
X133692899Y-126777750D02*
X133692899Y-128733550D01*
X133692899Y-128733550D02*
X134279639Y-129320290D01*
X134279639Y-129320290D02*
X136077814Y-129320290D01*
X136077814Y-129320290D02*
X137282534Y-130525010D01*
X137282534Y-130525010D02*
X137505010Y-130525010D01*
X137505010Y-130525010D02*
X137520000Y-130540000D01*
X99101140Y-123650000D02*
X100713280Y-123650000D01*
X100713280Y-123650000D02*
X101559360Y-122803920D01*
X101559360Y-122803920D02*
X105353920Y-122803920D01*
X105353920Y-122803920D02*
X110000000Y-127450000D01*
X103100000Y-127450000D02*
X110000000Y-127450000D01*
X99250000Y-130600000D02*
X99250000Y-127998860D01*
X99250000Y-127998860D02*
X99001140Y-127750000D01*
X99001140Y-127750000D02*
X102800000Y-127750000D01*
X102800000Y-127750000D02*
X103100000Y-127450000D01*
D22*
X137520000Y-130000000D02*
X137500000Y-130000000D01*
X91000000Y-123250000D02*
X91000000Y-122805349D01*
X91000000Y-122805349D02*
X91000000Y-122275019D01*
X93000000Y-125250000D02*
X91000000Y-123250000D01*
X93000000Y-125350000D02*
X93000000Y-125250000D01*
D24*
X95998860Y-126800000D02*
X94350000Y-126800000D01*
X94350000Y-126800000D02*
X93000000Y-125450000D01*
X93000000Y-125450000D02*
X93000000Y-125350000D01*
X121000000Y-99110000D02*
X121056648Y-99053352D01*
X121056648Y-99053352D02*
X130666223Y-99053352D01*
X130666223Y-99053352D02*
X131988961Y-100376090D01*
X131988961Y-100376090D02*
X137757565Y-100376090D01*
X137757565Y-100376090D02*
X139300758Y-101919283D01*
X139300758Y-101919283D02*
X144190717Y-101919283D01*
X144190717Y-101919283D02*
X146174501Y-99935499D01*
X146174501Y-99935499D02*
X147000000Y-99110000D01*
X94000000Y-99110000D02*
X102050263Y-99110000D01*
X102050263Y-99110000D02*
X103439762Y-100499499D01*
X103439762Y-100499499D02*
X110177446Y-100499499D01*
X110177446Y-100499499D02*
X111495052Y-101817105D01*
X111495052Y-101817105D02*
X118292895Y-101817105D01*
X118292895Y-101817105D02*
X120174501Y-99935499D01*
X120174501Y-99935499D02*
X121000000Y-99110000D01*
D22*
X90300000Y-118300000D02*
X90400000Y-118200000D01*
X90400000Y-118200000D02*
X90400000Y-111800000D01*
X90500000Y-108800000D02*
X90600000Y-108700000D01*
X90600000Y-108700000D02*
X90600000Y-102510000D01*
X90600000Y-102510000D02*
X94000000Y-99110000D01*
X87500000Y-116750000D02*
X88400000Y-116750000D01*
X88400000Y-116750000D02*
X88500000Y-116650000D01*
D24*
X87500000Y-116750000D02*
X87400000Y-116750000D01*
D22*
X87400000Y-114200000D02*
X87400000Y-116750000D01*
X87400000Y-114200000D02*
X86000000Y-112800000D01*
D24*
X88400000Y-116750000D02*
X88500000Y-116650000D01*
D22*
X86000000Y-112540000D02*
X86000000Y-112800000D01*
X88500000Y-119350000D02*
X102241648Y-119350000D01*
X131072596Y-121552596D02*
X137520000Y-128000000D01*
X131072596Y-121552596D02*
X104444244Y-121552596D01*
X104444244Y-121552596D02*
X102341648Y-119450000D01*
X102241648Y-119350000D02*
X102341648Y-119450000D01*
X155300000Y-128000000D02*
X155300000Y-119900000D01*
X147000000Y-114350000D02*
X149750000Y-114350000D01*
X149750000Y-114350000D02*
X155300000Y-119900000D01*
X152760000Y-128000000D02*
X152760000Y-120060000D01*
X149590000Y-116890000D02*
X147000000Y-116890000D01*
X152760000Y-120060000D02*
X149590000Y-116890000D01*
X121825499Y-115175499D02*
X121000000Y-114350000D01*
X125149978Y-118499978D02*
X121825499Y-115175499D01*
X138797064Y-118499978D02*
X125149978Y-118499978D01*
X150220000Y-126832567D02*
X142687411Y-119299978D01*
X142687411Y-119299978D02*
X139597064Y-119299978D01*
X150220000Y-128000000D02*
X150220000Y-126832567D01*
X139597064Y-119299978D02*
X138797064Y-118499978D01*
X139348532Y-119899989D02*
X142244606Y-119899989D01*
X147680000Y-126832567D02*
X147680000Y-128000000D01*
X142244606Y-119899989D02*
X147680000Y-125335383D01*
X147680000Y-125335383D02*
X147680000Y-126832567D01*
X138548532Y-119099989D02*
X139348532Y-119899989D01*
X123209989Y-119099989D02*
X138548532Y-119099989D01*
X121000000Y-116890000D02*
X123209989Y-119099989D01*
X142600000Y-128000000D02*
X142600000Y-126832567D01*
X142600000Y-126832567D02*
X135467433Y-119700000D01*
X135467433Y-119700000D02*
X105400000Y-119700000D01*
X105400000Y-119700000D02*
X100050000Y-114350000D01*
X100050000Y-114350000D02*
X94000000Y-114350000D01*
X140060000Y-128000000D02*
X132544659Y-120484659D01*
X132544659Y-120484659D02*
X104784659Y-120484659D01*
X104784659Y-120484659D02*
X101190000Y-116890000D01*
X101190000Y-116890000D02*
X94000000Y-116890000D01*
M02*
