M48
;DRILL file {KiCad 4.0.2-stable} date 6/28/2016 8:37:32 AM
;FORMAT={-:-/ absolute / metric / decimal}
FMAT,2
METRIC,TZ
T1C0.500
T2C0.900
T3C1.016
T4C1.200
%
G90
G05
M71
T1
X90.3Y-118.3
X90.4Y-111.8
X90.5Y-108.8
X91.Y-122.275
X91.9Y-118.3
X92.994Y-120.991
X93.Y-127.4
X95.65Y-128.8
X102.5Y-121.8
X105.6Y-125.5
T2
X83.Y-122.73
X83.Y-125.27
X83.13Y-130.4
X85.67Y-130.4
X88.6Y-122.83
X88.6Y-125.37
X98.73Y-101.46
X98.73Y-104.
X98.73Y-106.54
X101.27Y-101.46
X101.27Y-104.
X101.27Y-106.54
X126.73Y-101.46
X126.73Y-104.
X126.73Y-106.54
X129.27Y-101.46
X129.27Y-104.
X129.27Y-106.54
X152.73Y-101.46
X152.73Y-104.
X152.73Y-106.54
X155.27Y-101.46
X155.27Y-104.
X155.27Y-106.54
T3
X94.Y-99.11
X94.Y-101.65
X94.Y-104.19
X94.Y-106.73
X94.Y-109.27
X94.Y-111.81
X94.Y-114.35
X94.Y-116.89
X106.7Y-99.11
X106.7Y-101.65
X106.7Y-104.19
X106.7Y-106.73
X106.7Y-109.27
X106.7Y-111.81
X106.7Y-114.35
X106.7Y-116.89
X112.12Y-128.
X112.12Y-130.54
X114.66Y-128.
X114.66Y-130.54
X117.2Y-128.
X117.2Y-130.54
X119.74Y-128.
X119.74Y-130.54
X121.Y-99.11
X121.Y-101.65
X121.Y-104.19
X121.Y-106.73
X121.Y-109.27
X121.Y-111.81
X121.Y-114.35
X121.Y-116.89
X122.28Y-128.
X122.28Y-130.54
X124.82Y-128.
X124.82Y-130.54
X127.36Y-128.
X127.36Y-130.54
X129.9Y-128.
X129.9Y-130.54
X132.44Y-128.
X132.44Y-130.54
X133.7Y-99.11
X133.7Y-101.65
X133.7Y-104.19
X133.7Y-106.73
X133.7Y-109.27
X133.7Y-111.81
X133.7Y-114.35
X133.7Y-116.89
X134.98Y-128.
X134.98Y-130.54
X137.52Y-128.
X137.52Y-130.54
X140.06Y-128.
X140.06Y-130.54
X142.6Y-128.
X142.6Y-130.54
X145.14Y-128.
X145.14Y-130.54
X147.Y-99.11
X147.Y-101.65
X147.Y-104.19
X147.Y-106.73
X147.Y-109.27
X147.Y-111.81
X147.Y-114.35
X147.Y-116.89
X147.68Y-128.
X147.68Y-130.54
X150.22Y-128.
X150.22Y-130.54
X152.76Y-128.
X152.76Y-130.54
X155.3Y-128.
X155.3Y-130.54
X157.84Y-128.
X157.84Y-130.54
X159.7Y-99.11
X159.7Y-101.65
X159.7Y-104.19
X159.7Y-106.73
X159.7Y-109.27
X159.7Y-111.81
X159.7Y-114.35
X159.7Y-116.89
X160.38Y-128.
X160.38Y-130.54
X162.92Y-128.
X162.92Y-130.54
X165.46Y-128.
X165.46Y-130.54
X168.Y-128.
X168.Y-130.54
T4
X86.Y-100.
X86.Y-102.54
X86.Y-110.
X86.Y-112.54
X114.Y-110.
X114.Y-112.54
X114.Y-115.08
X114.Y-117.62
X140.5Y-110.2
X140.5Y-112.74
X140.5Y-115.28
X140.5Y-117.82
X166.Y-110.
X166.Y-112.54
X166.Y-115.08
X166.Y-117.62
T0
M30
