G04 #@! TF.FileFunction,Soldermask,Bot*
%FSLAX46Y46*%
G04 Gerber Fmt 4.6, Leading zero omitted, Abs format (unit mm)*
G04 Created by KiCad (PCBNEW 4.0.2-stable) date 6/28/2016 8:29:36 AM*
%MOMM*%
G01*
G04 APERTURE LIST*
%ADD10C,0.100000*%
%ADD11R,3.000000X2.400000*%
%ADD12O,3.000000X2.400000*%
%ADD13R,2.000000X2.000000*%
%ADD14C,2.000000*%
%ADD15R,2.051000X2.051000*%
%ADD16C,2.051000*%
G04 APERTURE END LIST*
D10*
D11*
X166000000Y-110000000D03*
D12*
X166000000Y-112540000D03*
X166000000Y-115080000D03*
X166000000Y-117620000D03*
D11*
X140500000Y-110200000D03*
D12*
X140500000Y-112740000D03*
X140500000Y-115280000D03*
X140500000Y-117820000D03*
D11*
X114000000Y-110000000D03*
D12*
X114000000Y-112540000D03*
X114000000Y-115080000D03*
X114000000Y-117620000D03*
D11*
X86000000Y-100000000D03*
D12*
X86000000Y-102540000D03*
D13*
X155270000Y-101460000D03*
D14*
X152730000Y-101460000D03*
X155270000Y-104000000D03*
X152730000Y-104000000D03*
X155270000Y-106540000D03*
X152730000Y-106540000D03*
D13*
X129270000Y-101460000D03*
D14*
X126730000Y-101460000D03*
X129270000Y-104000000D03*
X126730000Y-104000000D03*
X129270000Y-106540000D03*
X126730000Y-106540000D03*
D13*
X101270000Y-101460000D03*
D14*
X98730000Y-101460000D03*
X101270000Y-104000000D03*
X98730000Y-104000000D03*
X101270000Y-106540000D03*
X98730000Y-106540000D03*
D13*
X88600000Y-122830000D03*
D14*
X88600000Y-125370000D03*
D13*
X83000000Y-122730000D03*
D14*
X83000000Y-125270000D03*
D11*
X86000000Y-110000000D03*
D12*
X86000000Y-112540000D03*
D15*
X168000000Y-128000000D03*
D16*
X168000000Y-130540000D03*
X165460000Y-128000000D03*
X165460000Y-130540000D03*
X162920000Y-128000000D03*
X162920000Y-130540000D03*
X160380000Y-128000000D03*
X160380000Y-130540000D03*
X157840000Y-128000000D03*
X157840000Y-130540000D03*
X155300000Y-128000000D03*
X155300000Y-130540000D03*
X152760000Y-128000000D03*
X152760000Y-130540000D03*
X150220000Y-128000000D03*
X150220000Y-130540000D03*
X147680000Y-128000000D03*
X147680000Y-130540000D03*
X145140000Y-128000000D03*
X145140000Y-130540000D03*
X142600000Y-128000000D03*
X142600000Y-130540000D03*
X140060000Y-128000000D03*
X140060000Y-130540000D03*
X137520000Y-128000000D03*
X137520000Y-130540000D03*
X134980000Y-128000000D03*
X134980000Y-130540000D03*
X132440000Y-128000000D03*
X132440000Y-130540000D03*
X129900000Y-128000000D03*
X129900000Y-130540000D03*
X127360000Y-128000000D03*
X127360000Y-130540000D03*
X124820000Y-128000000D03*
X124820000Y-130540000D03*
X122280000Y-128000000D03*
X122280000Y-130540000D03*
X119740000Y-128000000D03*
X119740000Y-130540000D03*
X117200000Y-128000000D03*
X117200000Y-130540000D03*
X114660000Y-128000000D03*
X114660000Y-130540000D03*
X112120000Y-128000000D03*
X112120000Y-130540000D03*
X147000000Y-99110000D03*
X147000000Y-101650000D03*
X147000000Y-104190000D03*
X147000000Y-106730000D03*
X147000000Y-109270000D03*
X147000000Y-111810000D03*
X147000000Y-114350000D03*
X147000000Y-116890000D03*
X159700000Y-116890000D03*
X159700000Y-114350000D03*
X159700000Y-111810000D03*
X159700000Y-109270000D03*
X159700000Y-106730000D03*
X159700000Y-104190000D03*
X159700000Y-101650000D03*
X159700000Y-99110000D03*
X121000000Y-99110000D03*
X121000000Y-101650000D03*
X121000000Y-104190000D03*
X121000000Y-106730000D03*
X121000000Y-109270000D03*
X121000000Y-111810000D03*
X121000000Y-114350000D03*
X121000000Y-116890000D03*
X133700000Y-116890000D03*
X133700000Y-114350000D03*
X133700000Y-111810000D03*
X133700000Y-109270000D03*
X133700000Y-106730000D03*
X133700000Y-104190000D03*
X133700000Y-101650000D03*
X133700000Y-99110000D03*
X94000000Y-99110000D03*
X94000000Y-101650000D03*
X94000000Y-104190000D03*
X94000000Y-106730000D03*
X94000000Y-109270000D03*
X94000000Y-111810000D03*
X94000000Y-114350000D03*
X94000000Y-116890000D03*
X106700000Y-116890000D03*
X106700000Y-114350000D03*
X106700000Y-111810000D03*
X106700000Y-109270000D03*
X106700000Y-106730000D03*
X106700000Y-104190000D03*
X106700000Y-101650000D03*
X106700000Y-99110000D03*
D13*
X83130000Y-130400000D03*
D14*
X85670000Y-130400000D03*
M02*
